<?xml version="1.0" encoding="utf-8"?>
<!-- Generator: Adobe Illustrator 21.1.0, SVG Export Plug-In . SVG Version: 6.00 Build 0)  -->
<svg version="1.1" id="Layer_1" xmlns="http://www.w3.org/2000/svg" xmlns:xlink="http://www.w3.org/1999/xlink" x="0px" y="0px"
	 viewBox="0 0 134.8 138" style="enable-background:new 0 0 134.8 138;" xml:space="preserve">
<style type="text/css">
	.st0{fill:url(#SVGID_1_);}
	.st1{fill:none;stroke:#907E3C;stroke-miterlimit:10;}
	.st2{fill:#004D17;}
	.st3{fill:#003402;}
	.st4{fill:#005D22;}
	.st5{fill:#FFFFFF;}
	.st6{fill:url(#SVGID_2_);}
	.st7{fill:url(#SVGID_3_);}
	.st8{fill:url(#SVGID_4_);}
	.st9{fill:url(#SVGID_5_);}
	.st10{fill:url(#SVGID_6_);}
	.st11{fill:url(#SVGID_7_);}
	.st12{fill:url(#SVGID_8_);}
</style>
<g>
	<g>
		<g>
			<path d="M51.4,61.4c0.3,0,0.5,0.1,0.8,0.1c2.3,0,3.4-1.5,3.4-4.2c0-2.6-1.1-3.8-2.6-3.8c-1.8,0-2.6,1.7-2.8,3.7l-0.4,0.1
				c-0.6-0.7-1.3-1.4-2-2c1-1.8,2.6-2.9,5.9-2.9c4.6,0,6.3,2.1,6.3,4.7c0,2.4-1.6,3.8-4.2,4.6V62c3.2,0.5,4.9,1.5,4.9,5
				c0,3.8-3.7,6-7.5,6c-3.2,0-5-1.1-5.9-2.3c0.7-0.9,1.3-1.7,1.9-2.6l0.4,0.1c0.3,1.8,1.3,3.5,3.2,3.5c1.9,0,3.4-1.8,3.4-4.3
				c0-2.6-1.3-4.4-3.4-4.4c-0.5,0-0.9,0.1-1.4,0.1V61.4z"/>
			<path d="M68.8,52.4c4.3,0,7,3.3,7,9.7c0,6.9-2.3,10.9-7.2,10.9c-5,0-7.2-4.1-7.2-10.5C61.4,56.1,64,52.4,68.8,52.4z M68.6,53.6
				c-1.8,0-2.6,1.8-2.6,8.7c0,6.6,0.3,9.4,2.5,9.4c1.8,0,2.6-1.6,2.6-9.1C71.1,55.2,70.3,53.6,68.6,53.6z"/>
			<path d="M83.6,57.3h2.8v6.2h6.2v2.8h-6.2v6.2h-2.8v-6.2h-6.2v-2.8h6.2V57.3z"/>
		</g>
	</g>
	<g>
		<linearGradient id="SVGID_1_" gradientUnits="userSpaceOnUse" x1="11.4578" y1="65.1799" x2="123.3513" y2="65.1799">
			<stop  offset="0" style="stop-color:#D9C066"/>
			<stop  offset="0.1156" style="stop-color:#B29A4B"/>
			<stop  offset="0.2236" style="stop-color:#D9C066"/>
			<stop  offset="0.5101" style="stop-color:#FFF797"/>
			<stop  offset="0.8116" style="stop-color:#D9C066"/>
			<stop  offset="0.8894" style="stop-color:#B29A4B"/>
			<stop  offset="1" style="stop-color:#D9C066"/>
		</linearGradient>
		<path class="st0" d="M67.4,18.2c25.9,0,46.9,21.1,46.9,46.9s-21.1,46.9-46.9,46.9S20.5,91.1,20.5,65.2S41.5,18.2,67.4,18.2
			 M67.4,9.2c-30.9,0-55.9,25-55.9,55.9s25,55.9,55.9,55.9s55.9-25,55.9-55.9S98.3,9.2,67.4,9.2L67.4,9.2z"/>
	</g>
	<circle class="st1" cx="67.3" cy="65.2" r="46.5"/>
	<path class="st4" d="M110.5,118.3l7-13.9c-16.3-13.8-25.4-20.7-49.1-20.7s-41.9,10.4-51.1,20.7c1.4,4.6,5.7,14.5,5.7,14.5
		c14.7-12.1,22.3-19.6,44.4-19.6S98.6,109.1,110.5,118.3z"/>
	<g>
		<g>
			<polygon class="st2" points="110.5,104.2 131.3,112.9 118.5,118.1 122.9,128.8 103.6,120.6 			"/>
			<polygon class="st3" points="116.1,106.5 116.1,125.9 103.6,120.6 111.1,106.5 			"/>
		</g>
		<polygon class="st3" points="103.6,120.6 101.1,109.9 109.7,109.9 		"/>
	</g>
	<g>
		<g>
			<polygon class="st2" points="24.3,104.2 3.5,112.9 16.3,118.1 11.9,128.8 31.2,120.6 			"/>
			<polygon class="st3" points="18.7,106.5 18.7,125.9 31.2,120.6 23.7,106.5 			"/>
		</g>
		<polygon class="st3" points="31.2,120.6 33.7,109.9 25.1,109.9 		"/>
	</g>
	<g>
		<g>
			<path class="st5" d="M20.8,107.2c0.9-0.9,1.3-1.3,2.2-2.1c1.1-1,2.1-1.1,2.8-0.4c0.4,0.5,0.6,1.2,0,2c0,0,0,0,0,0
				c0.6-0.5,1.2-0.4,1.6-0.1c0.3,0.3,0.4,0.4,0.7,0.7c0.5,0.5,0.7,0.5,1,0.4c-0.4,0.3-0.6,0.5-0.9,0.8c-0.2,0-0.6-0.3-0.8-0.5
				c-0.3-0.3-0.4-0.4-0.7-0.7c-0.6-0.6-1.1-0.2-1.5,0.2c-0.4,0.4-0.6,0.6-1.1,1c0.7,0.8,1.1,1.2,1.9,1.9c-0.3,0.3-0.4,0.4-0.7,0.7
				C23.3,109.8,22.5,108.9,20.8,107.2z M23.5,108.4c0.3-0.3,0.5-0.5,0.8-0.7c0.5-0.4,1.4-1.2,0.6-2.1c-0.4-0.4-1.1-0.3-1.9,0.4
				c-0.4,0.4-0.6,0.6-1,0.9C22.6,107.5,22.9,107.8,23.5,108.4z"/>
			<path class="st5" d="M28.8,105.2c0.4,0.5,1.1,1.4,2,0.6c0.7-0.6,0.4-1.2,0.2-1.5c0.3-0.2,0.5-0.4,0.8-0.6
				c0.3,0.4,0.6,1.5-0.7,2.5c-1.2,0.9-2.2,0.7-3.2-0.5c-0.7-0.9-1.3-2.1,0.3-3.4c1.6-1.2,2.5-0.3,3.1,0.5c0.1,0.1,0.1,0.1,0.2,0.2
				C30.4,104,29.9,104.4,28.8,105.2z M30.3,103.3c-0.1-0.1-0.1-0.1-0.1-0.2c-0.3-0.4-0.8-0.8-1.6-0.2c-0.9,0.7-0.4,1.5-0.2,1.7
				c0,0.1,0.1,0.1,0.1,0.1C29.2,104.2,29.6,103.9,30.3,103.3z"/>
			<path class="st5" d="M31.7,101.8c-0.6-0.9-0.3-1.6,1-2.5c1.7-1.1,2.1-0.3,2.4,0.1c0.5,0.9,0.8,1.3,1.3,2.2
				c0.1,0.2,0.2,0.3,0.4,0.2c0.1-0.1,0.1-0.1,0.2-0.2c0.1,0.2,0.2,0.3,0.3,0.4c-0.1,0-0.3,0.2-0.5,0.3c-0.3,0.2-0.7,0.4-1,0
				c0,0,0,0,0,0c-0.1,0.5-0.4,1-0.9,1.3c-1,0.6-1.7,0.5-2.1-0.2c-0.4-0.5-0.3-1.1,0.3-1.7c0.4-0.4,0.6-0.6,1-1
				c0.5-0.5,0.5-0.6,0.3-1c-0.2-0.4-0.7-0.4-1.2,0c-0.9,0.6-0.5,1.2-0.5,1.4c0,0,0,0,0,0C32.2,101.5,32.1,101.6,31.7,101.8z
				 M34.7,100.7c-0.2,0.4-0.9,0.9-1.1,1.4c-0.2,0.3-0.2,0.5,0,0.9c0.3,0.4,0.6,0.5,1.2,0.2c0.5-0.3,0.8-1,0.6-1.4
				C35.1,101.3,35,101.1,34.7,100.7z"/>
			<path class="st5" d="M35,96.4c0.4-0.2,0.5-0.3,0.9-0.5c1.2,2.1,1.7,3.2,2.9,5.3c-0.3,0.2-0.5,0.3-0.8,0.5
				C36.8,99.5,36.2,98.5,35,96.4z"/>
			<path class="st5" d="M39.9,93.9c1.7-0.8,2.5-1.1,4.2-1.7c0.1,0.2,0.1,0.4,0.2,0.6c-1.3,0.5-1.9,0.7-3.2,1.3
				c0.3,0.7,0.5,1,0.8,1.7c1.2-0.5,1.7-0.7,2.9-1.2c0.1,0.2,0.1,0.4,0.2,0.6c-1.2,0.4-1.7,0.7-2.9,1.2c0.3,0.8,0.5,1.2,0.9,2
				c1.2-0.5,1.8-0.8,3.1-1.2c0.1,0.2,0.1,0.4,0.2,0.6c-1.6,0.6-2.4,0.9-3.9,1.6C41.5,97.2,40.9,96.1,39.9,93.9z"/>
			<path class="st5" d="M48.7,93.6c-0.2-0.5-0.5-0.8-1.2-0.6c-0.3,0.1-1,0.4-0.8,1c0.2,0.5,0.9,0.3,1.7,0.3c0.8-0.1,1.6-0.1,1.8,0.8
				c0.3,0.9-0.4,1.6-1.4,1.9c-1.9,0.6-2.3-0.4-2.5-0.8c0.4-0.1,0.5-0.2,0.9-0.3c0.2,0.5,0.5,0.9,1.4,0.6c0.3-0.1,0.9-0.4,0.7-1
				c-0.2-0.6-0.9-0.5-1.7-0.4c-0.8,0.1-1.6,0.2-1.9-0.7c-0.3-0.8,0.5-1.5,1.5-1.8c1.8-0.6,2.1,0.3,2.3,0.8
				C49.3,93.4,49.1,93.5,48.7,93.6z"/>
			<path class="st5" d="M50.3,90.4c0.4-0.1,0.6-0.2,1-0.3c0.1,0.5,0.2,0.8,0.3,1.3c0.4-0.1,0.6-0.2,1.1-0.3c0.1,0.2,0.1,0.3,0.1,0.5
				c-0.4,0.1-0.6,0.2-1.1,0.3c0.3,1.1,0.4,1.7,0.7,2.8c0.1,0.4,0.2,0.5,0.7,0.3c0.2,0,0.3-0.1,0.4-0.1c0.1,0.2,0.1,0.3,0.1,0.6
				c-0.1,0-0.3,0.1-0.7,0.2c-0.9,0.2-1.2,0-1.4-0.6c-0.3-1.2-0.5-1.8-0.8-3c-0.4,0.1-0.5,0.1-0.9,0.2c-0.1-0.2-0.1-0.3-0.2-0.5
				c0.4-0.1,0.5-0.2,0.9-0.2C50.5,91.1,50.4,90.9,50.3,90.4z"/>
			<path class="st5" d="M53.5,92.3c-0.2-1,0.3-1.6,1.8-1.9c1.9-0.4,2,0.5,2.1,1c0.2,1,0.2,1.5,0.4,2.5c0,0.2,0.1,0.4,0.3,0.3
				c0.1,0,0.2,0,0.2-0.1c0,0.2,0,0.3,0.1,0.5c-0.1,0-0.3,0.1-0.5,0.1c-0.3,0.1-0.8,0.1-0.9-0.4c0,0,0,0,0,0
				c-0.2,0.5-0.7,0.8-1.3,0.9c-1.1,0.2-1.7-0.2-1.9-0.9c-0.1-0.6,0.1-1.1,0.9-1.5c0.5-0.2,0.7-0.3,1.2-0.5c0.7-0.3,0.6-0.4,0.6-0.8
				c-0.1-0.4-0.5-0.6-1.1-0.5c-1.1,0.2-0.9,0.9-0.9,1.1c0,0,0,0,0,0C54.1,92.2,53.9,92.2,53.5,92.3z M56.6,92.4
				c-0.3,0.3-1.1,0.5-1.5,0.8c-0.3,0.2-0.4,0.4-0.3,0.8c0.1,0.4,0.4,0.7,1,0.6c0.6-0.1,1.1-0.6,1-1.1C56.7,93.1,56.7,92.9,56.6,92.4
				z"/>
			<path class="st5" d="M58.8,88.7c0.4-0.1,0.6-0.1,1-0.1c0.1,0.5,0.1,0.8,0.2,1.3c0.4-0.1,0.7-0.1,1.1-0.1c0,0.2,0,0.3,0.1,0.6
				c-0.4,0-0.7,0.1-1.1,0.1c0.1,1.2,0.2,1.7,0.3,2.9c0,0.4,0.2,0.5,0.7,0.4c0.2,0,0.3,0,0.4-0.1c0,0.2,0,0.3,0.1,0.6
				c-0.1,0-0.4,0.1-0.7,0.1c-1,0.1-1.2-0.2-1.3-0.7c-0.2-1.2-0.2-1.9-0.4-3.1c-0.4,0-0.5,0.1-0.9,0.1c0-0.2,0-0.3-0.1-0.6
				C58.4,90,58.6,90,59,90C58.9,89.5,58.9,89.2,58.8,88.7z"/>
			<path class="st5" d="M62.7,91.9c0.1,0.7,0.1,1.7,1.3,1.7c0.9,0,1-0.8,1-1.1c0.4,0,0.6,0,0.9,0c0,0.5-0.3,1.6-1.9,1.7
				c-1.4,0.1-2.1-0.6-2.3-2.2c-0.1-1.1,0.1-2.5,2-2.6c1.9-0.1,2.2,1.1,2.2,2.1c0,0.1,0,0.2,0,0.3C64.7,91.8,64,91.9,62.7,91.9z
				 M64.9,91.3c0-0.1,0-0.1,0-0.2c0-0.5-0.3-1.1-1.1-1.1c-1,0.1-1.1,1-1.1,1.3c0,0.1,0,0.1,0,0.2C63.6,91.3,64.1,91.3,64.9,91.3z"/>
			<path class="st5" d="M69.9,88c1.8,0.1,2.7,0.1,4.5,0.3c0,0.3,0,0.4-0.1,0.7c-1.3-0.1-2-0.2-3.4-0.3c0,0.8-0.1,1.1-0.1,1.9
				c1.2,0.1,1.9,0.1,3.1,0.2c0,0.3,0,0.4-0.1,0.7c-1.2-0.1-1.8-0.2-3.1-0.2c0,0.9-0.1,1.3-0.1,2.2c1.3,0.1,2,0.1,3.3,0.3
				c0,0.3,0,0.4-0.1,0.7c-1.7-0.2-2.5-0.2-4.2-0.3C69.8,91.6,69.9,90.4,69.9,88z"/>
			<path class="st5" d="M74.9,89.9c0.4,0.1,0.7,0.1,1.1,0.1c0.4,0.7,0.6,1.1,0.9,1.8c0.5-0.6,0.8-0.9,1.4-1.4
				c0.4,0.1,0.6,0.1,1.1,0.2c-0.8,0.7-1.2,1.1-2,1.9c0.5,1,0.7,1.6,1.2,2.6c-0.4-0.1-0.6-0.1-1-0.2c-0.3-0.8-0.5-1.2-0.9-2
				c-0.6,0.6-0.9,1-1.4,1.6c-0.4-0.1-0.6-0.1-1-0.1c0.8-0.9,1.1-1.3,1.9-2.1C75.7,91.3,75.4,90.8,74.9,89.9z"/>
			<path class="st5" d="M80.1,90.7c0.4,0.1,0.6,0.1,0.9,0.2c0,0.2-0.1,0.3-0.1,0.5c0,0,0,0,0,0c0.2-0.3,0.8-0.5,1.5-0.4
				c1.5,0.4,1.8,1.4,1.4,2.7c-0.3,1-1,2.3-2.5,1.9c-0.5-0.1-0.9-0.5-1.1-0.9c0,0,0,0,0,0c-0.2,0.8-0.3,1.2-0.4,2
				c-0.4-0.1-0.5-0.1-0.9-0.2C79.4,94.2,79.6,93,80.1,90.7z M81.3,95.1c0.8,0.2,1.2-0.4,1.5-1.5c0.2-1,0.2-1.7-0.7-1.9
				c-1.1-0.3-1.4,0.4-1.6,1.5C80.4,93.9,80.4,94.9,81.3,95.1z"/>
			<path class="st5" d="M85.6,94.5c-0.2,0.7-0.5,1.7,0.6,2c0.9,0.3,1.2-0.3,1.3-0.7c0.4,0.1,0.5,0.2,0.9,0.3
				c-0.2,0.5-0.9,1.4-2.4,0.9c-1.4-0.5-1.8-1.3-1.3-2.8c0.3-1.1,1-2.3,2.9-1.7c1.9,0.6,1.6,1.8,1.3,2.8c0,0.1-0.1,0.2-0.1,0.3
				C87.4,95.1,86.8,94.9,85.6,94.5z M87.9,94.6c0-0.1,0-0.1,0.1-0.2c0.2-0.5,0.2-1.1-0.7-1.4c-1-0.3-1.4,0.5-1.5,0.8
				c0,0.1,0,0.1,0,0.2C86.6,94.2,87.1,94.4,87.9,94.6z"/>
			<path class="st5" d="M90.5,93.7c0.4,0.1,0.6,0.2,0.9,0.4c-0.1,0.3-0.2,0.4-0.3,0.6c0,0,0,0,0,0c0.4-0.3,0.9-0.5,1.6-0.2
				c0.2,0.1,0.3,0.2,0.4,0.2c-0.1,0.3-0.2,0.4-0.3,0.6c-0.1,0-0.2-0.1-0.5-0.2c-0.5-0.2-1.3-0.2-1.6,0.5c-0.4,1.1-0.6,1.6-1.1,2.7
				c-0.3-0.1-0.5-0.2-0.9-0.3C89.5,96.2,89.9,95.4,90.5,93.7z"/>
			<path class="st5" d="M94.5,93.7c0.4,0.2,0.6,0.3,0.9,0.4c-0.1,0.3-0.2,0.4-0.3,0.7c-0.4-0.2-0.6-0.3-0.9-0.4
				C94.3,94.2,94.4,94,94.5,93.7z M93.9,95.1c0.4,0.2,0.6,0.3,0.9,0.4c-0.8,1.6-1.2,2.5-1.9,4.1c-0.3-0.2-0.5-0.2-0.9-0.4
				C92.8,97.6,93.1,96.7,93.9,95.1z"/>
			<path class="st5" d="M95.7,98.6c-0.3,0.6-0.8,1.5,0.2,2.1c0.8,0.4,1.3-0.1,1.4-0.4c0.3,0.2,0.5,0.3,0.8,0.5
				c-0.2,0.4-1.1,1.2-2.6,0.4c-1.3-0.7-1.5-1.6-0.8-3c0.5-1,1.4-2.1,3.1-1.1c1.8,0.9,1.3,2.1,0.8,3c-0.1,0.1-0.1,0.1-0.1,0.2
				C97.5,99.5,96.9,99.2,95.7,98.6z M98,99.2c0-0.1,0.1-0.1,0.1-0.2c0.2-0.4,0.3-1.1-0.4-1.5c-0.9-0.5-1.5,0.3-1.6,0.5
				c0,0.1,0,0.1-0.1,0.2C96.8,98.5,97.2,98.7,98,99.2z"/>
			<path class="st5" d="M100.8,98.7c0.3,0.2,0.5,0.3,0.8,0.5c-0.1,0.2-0.2,0.3-0.3,0.5c0,0,0,0,0,0c0.4-0.2,1.2,0,1.7,0.3
				c1.5,1,0.9,1.7,0.6,2.2c-0.7,1.1-1.1,1.6-1.8,2.6c-0.3-0.2-0.5-0.3-0.8-0.5c0.7-1,1.1-1.6,1.8-2.6c0.2-0.3,0.5-0.8-0.3-1.3
				c-0.5-0.3-1.2-0.5-1.6,0.1c-0.7,1.1-1,1.6-1.7,2.6c-0.3-0.2-0.5-0.3-0.8-0.5C99.4,101.1,99.9,100.3,100.8,98.7z"/>
			<path class="st5" d="M107.2,104.9c0.3-0.3,0.4-0.9-0.2-1.4c-0.5-0.4-1.2-0.6-2.2,0.7c-0.4,0.5-1.1,1.4-0.1,2.1
				c0.7,0.5,1.2,0.1,1.5-0.2c0.3,0.3,0.5,0.4,0.8,0.6c-0.5,0.6-1.5,1-2.7,0c-1.2-0.9-1.3-1.9-0.3-3.2c0.7-0.9,1.7-1.8,3.3-0.5
				c1.4,1.1,1,2.1,0.7,2.5C107.7,105.3,107.5,105.2,107.2,104.9z"/>
			<path class="st5" d="M108.8,107.6c-0.5,0.5-1.2,1.3-0.3,2.1c0.7,0.6,1.3,0.2,1.5,0c0.3,0.3,0.4,0.4,0.7,0.7
				c-0.3,0.3-1.4,0.8-2.7-0.3c-1.1-1.1-1.1-2-0.1-3.2c0.7-0.9,1.9-1.7,3.4-0.2c1.5,1.4,0.8,2.4,0.1,3.1c-0.1,0.1-0.1,0.1-0.2,0.2
				C110.3,109,109.8,108.5,108.8,107.6z M110.9,108.8c0.1-0.1,0.1-0.1,0.2-0.2c0.4-0.4,0.6-1-0.1-1.6c-0.8-0.8-1.5-0.2-1.7,0
				c0,0.1-0.1,0.1-0.1,0.1C109.9,107.8,110.2,108.1,110.9,108.8z"/>
		</g>
	</g>
</g>
</svg>
