<?xml version="1.0" encoding="utf-8"?>
<!-- Generator: Adobe Illustrator 21.1.0, SVG Export Plug-In . SVG Version: 6.00 Build 0)  -->
<svg version="1.1" id="Layer_1" xmlns="http://www.w3.org/2000/svg" xmlns:xlink="http://www.w3.org/1999/xlink" x="0px" y="0px"
	 viewBox="0 0 134.8 138" style="enable-background:new 0 0 134.8 138;" xml:space="preserve">
<style type="text/css">
	.st0{fill:url(#SVGID_1_);}
	.st1{fill:none;stroke:#907E3C;stroke-miterlimit:10;}
	.st2{fill:#004D17;}
	.st3{fill:#003402;}
	.st4{fill:#005D22;}
	.st5{fill:#FFFFFF;}
	.st6{fill:url(#SVGID_2_);}
	.st7{fill:url(#SVGID_3_);}
	.st8{fill:url(#SVGID_4_);}
	.st9{fill:url(#SVGID_5_);}
	.st10{fill:url(#SVGID_6_);}
	.st11{fill:url(#SVGID_7_);}
	.st12{fill:url(#SVGID_8_);}
</style>
<g>
	<g>
		<g>
			<path d="M52.9,67.8H45c0.1-0.5,0.2-1,0.2-1.5c0-0.5-0.1-1-0.2-1.4c2.7-4.2,5.4-8.4,8.3-12.6c0.7,0.1,1.3,0.2,2,0.2
				c0.7,0,1.3-0.1,1.9-0.2c-0.2,1.9-0.3,7.4-0.3,12.3l2.6-0.2c-0.1,0.6-0.1,1.2-0.1,1.8s0.1,1.2,0.1,1.7l-2.6-0.2
				c0,1.6,0,3.3,0.3,4.9c-0.8-0.1-1.5-0.2-2.3-0.2s-1.5,0.1-2.3,0.2L52.9,67.8z M52.9,55.8L52.9,55.8c-1.2,1.6-4,5.8-5.9,8.8h5.9
				V55.8z"/>
			<path d="M60.9,60.3c0-3.4-0.1-5.7-0.2-8.3c0.7,0.1,1.5,0.1,2.5,0.1c1.7,0,3.7-0.1,5.4-0.1c3.6,0,6.1,1.4,6.1,4.6s-3,4.6-4.9,5
				v0.1c1.8,0.1,5.4,1.4,5.4,5c0,4.3-3.4,6-7,6c-1.6,0-2.9-0.2-4.4-0.2c-1.1,0-2.4,0.1-3,0.2c0.2-2.6,0.2-5,0.2-8.3V60.3z
				 M66.9,53.7c-0.9,0-1.1,0-1.5,0.1c-0.1,1.5-0.1,3.1-0.1,4.2c0,1.1,0,2,0,3.1h1.3c1.7,0,3.4-1.3,3.4-3.8
				C70.1,55.3,69.3,53.7,66.9,53.7z M66.6,62.7c-0.5,0-0.9,0-1.3,0c0,0.8,0,1.7,0,2.9c0,1.9,0.1,4.2,0.1,5.3c0.5,0,1,0.1,1.6,0.1
				c1.8,0,3.3-1.5,3.3-4.1C70.3,64.1,69,62.7,66.6,62.7z"/>
			<path d="M82.9,57.3h2.8v6.2h6.2v2.8h-6.2v6.2h-2.8v-6.2h-6.2v-2.8h6.2V57.3z"/>
		</g>
	</g>
	<g>
		<linearGradient id="SVGID_1_" gradientUnits="userSpaceOnUse" x1="11.4578" y1="65.1799" x2="123.3513" y2="65.1799">
			<stop  offset="0" style="stop-color:#D9C066"/>
			<stop  offset="0.1156" style="stop-color:#B29A4B"/>
			<stop  offset="0.2236" style="stop-color:#D9C066"/>
			<stop  offset="0.5101" style="stop-color:#FFF797"/>
			<stop  offset="0.8116" style="stop-color:#D9C066"/>
			<stop  offset="0.8894" style="stop-color:#B29A4B"/>
			<stop  offset="1" style="stop-color:#D9C066"/>
		</linearGradient>
		<path class="st0" d="M67.4,18.2c25.9,0,46.9,21.1,46.9,46.9s-21.1,46.9-46.9,46.9S20.5,91.1,20.5,65.2S41.5,18.2,67.4,18.2
			 M67.4,9.2c-30.9,0-55.9,25-55.9,55.9s25,55.9,55.9,55.9c30.9,0,55.9-25,55.9-55.9S98.3,9.2,67.4,9.2L67.4,9.2z"/>
	</g>
	<circle class="st1" cx="67.3" cy="65.2" r="46.5"/>
	<g>
		<g>
			<polygon class="st2" points="110.5,104.2 131.3,112.9 118.5,118.1 122.9,128.8 103.6,120.6 			"/>
			<polygon class="st3" points="116.1,106.5 116.1,125.9 103.6,120.6 111.1,106.5 			"/>
		</g>
		<polygon class="st3" points="103.6,120.6 101.1,109.9 109.7,109.9 		"/>
	</g>
	<g>
		<g>
			<polygon class="st2" points="24.3,104.2 3.5,112.9 16.3,118.1 11.9,128.8 31.2,120.6 			"/>
			<polygon class="st3" points="18.7,106.5 18.7,125.9 31.2,120.6 23.7,106.5 			"/>
		</g>
		<polygon class="st3" points="31.2,120.6 33.7,109.9 25.1,109.9 		"/>
	</g>
	<path class="st4" d="M110,118.3l7-13.9c-16.3-13.8-25.4-20.7-49.1-20.7S26,94.1,16.8,104.4c1.4,4.6,5.7,14.5,5.7,14.5
		c14.7-12.1,22.3-19.6,44.4-19.6S98.1,109.1,110,118.3z"/>
	<g>
		<g>
			<path class="st5" d="M28.6,108.9c-0.4,0.3-0.6,0.5-0.9,0.8c-1.7-1.9-2.6-2.9-4.4-4.8c-0.8,0.8-1.2,1.1-2,1.9
				c-0.2-0.2-0.3-0.3-0.6-0.6c2-2,3.1-3,5.2-4.7c0.2,0.2,0.3,0.4,0.5,0.6c-0.9,0.7-1.3,1.1-2.1,1.8C26,106,26.9,107,28.6,108.9z"/>
			<path class="st5" d="M28.8,101.5c1.9-1.4,3.1-0.6,4,0.7c0.9,1.3,1.2,2.6-0.5,3.9c-1.7,1.3-2.9,0.6-3.9-0.6
				C27.4,104.3,27,102.9,28.8,101.5z M31.8,102.9c-0.7-1-1.5-1.7-2.6-0.8c-1,0.8-0.6,1.7,0.1,2.7c0.7,0.9,1.5,1.6,2.5,0.8
				C32.8,104.8,32.4,103.8,31.8,102.9z"/>
			<path class="st5" d="M31.8,97.7c0.4-0.3,0.6-0.4,1.1-0.7c0.3,0.5,0.5,0.8,0.8,1.3c0.5-0.3,0.7-0.4,1.2-0.7
				c0.1,0.2,0.2,0.3,0.3,0.6c-0.5,0.3-0.7,0.4-1.2,0.7c0.7,1.2,1.1,1.8,1.8,3c0.2,0.4,0.4,0.4,1,0.1c0.2-0.1,0.3-0.2,0.4-0.3
				c0.1,0.2,0.2,0.4,0.4,0.6c-0.1,0.1-0.4,0.3-0.8,0.5c-1,0.6-1.4,0.5-1.8-0.1c-0.8-1.3-1.2-1.9-2-3.2c-0.4,0.2-0.6,0.4-1,0.6
				c-0.1-0.2-0.2-0.3-0.4-0.6c0.4-0.3,0.6-0.4,1-0.6C32.3,98.5,32.1,98.2,31.8,97.7z"/>
			<path class="st5" d="M36.2,98.8c-0.6-1.1-0.2-2,1.4-2.8c2.1-1.1,2.6-0.2,2.8,0.3c0.5,1.1,0.8,1.6,1.3,2.7
				c0.1,0.2,0.2,0.4,0.5,0.2c0.1-0.1,0.2-0.1,0.2-0.2c0.1,0.2,0.2,0.3,0.3,0.6c-0.1,0-0.3,0.2-0.6,0.3c-0.4,0.2-0.9,0.4-1.2-0.2
				c0,0,0,0,0,0c-0.1,0.6-0.6,1.2-1.2,1.5c-1.2,0.6-2,0.4-2.5-0.4c-0.4-0.7-0.3-1.3,0.5-2c0.5-0.4,0.7-0.6,1.3-1.1
				c0.7-0.6,0.6-0.7,0.4-1.1c-0.2-0.5-0.7-0.5-1.5-0.2c-1.2,0.6-0.8,1.4-0.7,1.6c0,0,0,0,0,0C36.9,98.4,36.6,98.5,36.2,98.8z
				 M39.9,97.7c-0.2,0.5-1.1,1-1.5,1.5c-0.3,0.3-0.3,0.6-0.1,1c0.3,0.5,0.7,0.7,1.4,0.3c0.7-0.3,1.1-1.1,0.8-1.6
				C40.2,98.5,40.1,98.2,39.9,97.7z"/>
			<path class="st5" d="M40.7,92.6c0.5-0.2,0.7-0.3,1.2-0.5c1.1,2.7,1.7,4,2.8,6.7c-0.4,0.2-0.6,0.3-1,0.4
				C42.5,96.6,41.9,95.3,40.7,92.6z"/>
			<path class="st5" d="M51.7,90.9c-0.2-0.7-0.7-1.2-1.9-0.8c-1,0.3-1.5,0.9-1.3,1.6c0.6,1.9,4.9-0.4,5.5,2.1
				c0.4,1.6-1.1,2.5-2.4,2.8c-2.1,0.6-3,0-3.5-1.5c0.5-0.2,0.7-0.2,1.2-0.4c0.2,0.8,0.6,1.6,2.2,1.1c0.9-0.2,1.5-0.9,1.3-1.7
				c-0.5-2-4.7,0.4-5.5-2.1C47,91.5,47,90,49.6,89.3c2-0.5,3-0.1,3.3,1.2C52.4,90.7,52.2,90.7,51.7,90.9z"/>
			<path class="st5" d="M54.5,91.8c-0.3-1.2,0.4-1.9,2.2-2.2c2.3-0.4,2.4,0.6,2.5,1.2c0.2,1.2,0.2,1.8,0.4,3c0,0.2,0.1,0.4,0.4,0.4
				c0.1,0,0.2,0,0.3-0.1c0,0.2,0,0.4,0.1,0.6c-0.1,0-0.4,0.1-0.6,0.1c-0.4,0.1-0.9,0.1-1.1-0.6c0,0,0,0,0,0c-0.3,0.5-0.9,0.9-1.6,1
				c-1.3,0.2-2-0.2-2.2-1.2c-0.2-0.7,0.2-1.4,1.1-1.7c0.6-0.3,0.9-0.4,1.5-0.6c0.8-0.3,0.8-0.5,0.7-0.9c-0.1-0.5-0.5-0.7-1.3-0.6
				c-1.3,0.2-1.1,1.1-1.1,1.3c0,0,0,0,0,0.1C55.2,91.7,55,91.7,54.5,91.8z M58.2,92c-0.4,0.4-1.4,0.6-1.8,0.9
				c-0.3,0.2-0.5,0.5-0.4,0.9c0.1,0.5,0.4,0.9,1.2,0.7c0.7-0.1,1.3-0.7,1.3-1.2C58.3,92.8,58.3,92.6,58.2,92z"/>
			<path class="st5" d="M60.6,87.4c0.5,0,0.7-0.1,1.2-0.1c0.2,2.9,0.4,4.3,0.6,7.2c-0.4,0-0.7,0.1-1.1,0.1
				C61,91.7,60.9,90.3,60.6,87.4z"/>
			<path class="st5" d="M64.7,91.7c0,0.8,0.1,2.1,1.5,2c1.1,0,1.2-0.9,1.2-1.3c0.5,0,0.7,0,1.1,0c0,0.6-0.5,1.9-2.4,1.9
				c-1.7,0-2.5-0.8-2.6-2.7c-0.1-1.4,0.2-3,2.6-3c2.4,0,2.5,1.5,2.5,2.6c0,0.1,0,0.2,0,0.3C67,91.7,66.3,91.7,64.7,91.7z M67.4,91
				c0-0.1,0-0.2,0-0.3c0-0.6-0.3-1.3-1.3-1.3c-1.3,0-1.3,1.1-1.3,1.5c0,0.1,0,0.1,0,0.2C65.8,91,66.3,91,67.4,91z"/>
			<path class="st5" d="M73.1,90.7c0.1-0.7-0.2-1.1-1-1.2c-0.4,0-1.2,0-1.3,0.7c0,0.6,0.9,0.8,1.8,1.1c0.9,0.3,1.7,0.6,1.6,1.7
				c-0.1,1.1-1.1,1.6-2.5,1.5c-2.4-0.2-2.4-1.5-2.3-2.1c0.5,0,0.7,0,1.1,0.1c0,0.7,0.2,1.3,1.3,1.3c0.4,0,1.2,0,1.3-0.8
				c0.1-0.7-0.8-1-1.7-1.2c-0.9-0.3-1.8-0.5-1.7-1.6c0-1,1.2-1.5,2.5-1.4c2.2,0.2,2.2,1.3,2.1,1.9C73.8,90.8,73.6,90.8,73.1,90.7z"
				/>
			<path class="st5" d="M78.1,88c0.5,0.1,0.8,0.1,1.3,0.2c0.4,2.6,0.5,3.9,0.7,6.5c0,0,0,0,0,0c1.3-2.3,1.9-3.4,3.4-5.6
				c0.5,0.1,0.8,0.2,1.3,0.4c-1.8,2.5-2.7,3.8-4.2,6.4c-0.6-0.1-0.9-0.2-1.4-0.3C78.9,92.5,78.7,91,78.1,88z"/>
			<path class="st5" d="M87.2,91.9c2.1,0.7,2.2,2.2,1.6,3.6c-0.5,1.4-1.5,2.5-3.4,1.8c-1.9-0.6-2.1-2-1.7-3.5
				C84.2,92.4,85.1,91.2,87.2,91.9z M87.7,95.1c0.4-1.1,0.5-2.2-0.7-2.6c-1.2-0.4-1.7,0.5-2,1.7s-0.4,2.2,0.7,2.5
				C86.8,97.1,87.3,96.2,87.7,95.1z"/>
			<path class="st5" d="M91.7,91.8c0.5,0.2,0.7,0.3,1.2,0.5c-1.1,2.7-1.7,4-2.8,6.7c-0.4-0.2-0.6-0.3-1-0.4
				C90.1,95.8,90.6,94.5,91.7,91.8z"/>
			<path class="st5" d="M95.7,101.7c-0.4-0.2-0.6-0.3-0.9-0.5c0.1-0.2,0.2-0.3,0.3-0.6c0,0,0,0,0,0c-0.5,0.3-1.3,0.2-1.9-0.1
				c-1.7-0.8-1.3-1.8-1-2.4c0.6-1.4,1-2.1,1.6-3.5c0.4,0.2,0.7,0.3,1.1,0.5c-0.6,1.4-1,2-1.6,3.4c-0.2,0.4-0.4,1,0.5,1.5
				c0.5,0.3,1.4,0.4,1.8-0.3c0.7-1.3,1.1-2,1.8-3.3c0.4,0.2,0.7,0.3,1.1,0.6C97.3,98.8,96.7,99.8,95.7,101.7z"/>
			<path class="st5" d="M99.8,97.8c0.4,0.2,0.6,0.4,1,0.6c-0.1,0.2-0.2,0.3-0.3,0.5c0,0,0,0,0,0c0.5-0.3,1.4,0,2,0.4
				c0.8,0.5,1.1,1,0.9,1.7c0.6-0.2,1.4-0.1,2,0.4c1.7,1.3,1,2.2,0.6,2.7c-1,1.2-1.4,1.8-2.4,3c-0.4-0.3-0.5-0.4-0.9-0.7
				c0.9-1.2,1.4-1.8,2.3-3c0.3-0.3,0.6-0.9-0.2-1.5c-0.5-0.3-1.3-0.7-1.8,0c-0.9,1.2-1.3,1.8-2.2,3.1c-0.4-0.3-0.6-0.4-0.9-0.7
				c0.8-1.2,1.3-1.9,2.1-3.1c0.2-0.3,0.6-0.9-0.3-1.5c-0.5-0.3-1.4-0.6-1.8,0.1c-0.8,1.3-1.2,1.9-2,3.2c-0.4-0.2-0.6-0.4-1-0.6
				C98.2,100.6,98.7,99.6,99.8,97.8z"/>
			<path class="st5" d="M107.5,106.8c-0.5,0.6-1.4,1.6-0.3,2.5c0.8,0.8,1.5,0.3,1.8,0c0.4,0.3,0.5,0.5,0.9,0.9
				c-0.4,0.4-1.7,1-3.2-0.4c-1.4-1.2-1.4-2.4-0.2-3.8c0.9-1,2.2-2,4.1-0.3c1.9,1.7,1,2.9,0.1,3.8c-0.1,0.1-0.1,0.1-0.2,0.2
				C109.3,108.4,108.7,107.9,107.5,106.8z M110,108.2c0.1-0.1,0.1-0.1,0.2-0.2c0.4-0.4,0.7-1.2-0.1-1.9c-1-0.9-1.8-0.2-2,0.1
				c-0.1,0.1-0.1,0.1-0.1,0.2C108.8,107,109.2,107.4,110,108.2z"/>
		</g>
	</g>
</g>
</svg>
