<?xml version="1.0" encoding="utf-8"?>
<!-- Generator: Adobe Illustrator 21.1.0, SVG Export Plug-In . SVG Version: 6.00 Build 0)  -->
<svg version="1.1" id="Layer_1" xmlns="http://www.w3.org/2000/svg" xmlns:xlink="http://www.w3.org/1999/xlink" x="0px" y="0px"
	 viewBox="0 0 134.8 138" style="enable-background:new 0 0 134.8 138;" xml:space="preserve">
<style type="text/css">
	.st0{fill:url(#SVGID_1_);}
	.st1{fill:none;stroke:#907E3C;stroke-miterlimit:10;}
	.st2{fill:#004D17;}
	.st3{fill:#003402;}
	.st4{fill:#005D22;}
	.st5{fill:#FFFFFF;}
	.st6{fill:url(#SVGID_2_);}
	.st7{fill:url(#SVGID_3_);}
	.st8{fill:url(#SVGID_4_);}
	.st9{fill:url(#SVGID_5_);}
	.st10{fill:url(#SVGID_6_);}
	.st11{fill:url(#SVGID_7_);}
	.st12{fill:url(#SVGID_8_);}
</style>
<g>
	<g>
		<linearGradient id="SVGID_1_" gradientUnits="userSpaceOnUse" x1="11.4578" y1="65.1799" x2="123.3513" y2="65.1799">
			<stop  offset="0" style="stop-color:#D9C066"/>
			<stop  offset="0.1156" style="stop-color:#B29A4B"/>
			<stop  offset="0.2236" style="stop-color:#D9C066"/>
			<stop  offset="0.5101" style="stop-color:#FFF797"/>
			<stop  offset="0.8116" style="stop-color:#D9C066"/>
			<stop  offset="0.8894" style="stop-color:#B29A4B"/>
			<stop  offset="1" style="stop-color:#D9C066"/>
		</linearGradient>
		<path class="st0" d="M67.4,18.2c25.9,0,46.9,21.1,46.9,46.9s-21.1,46.9-46.9,46.9S20.5,91.1,20.5,65.2S41.5,18.2,67.4,18.2
			 M67.4,9.2c-30.9,0-55.9,25-55.9,55.9s25,55.9,55.9,55.9s55.9-25,55.9-55.9S98.3,9.2,67.4,9.2L67.4,9.2z"/>
	</g>
	<circle class="st1" cx="67.3" cy="65.2" r="46.5"/>
	<g>
		<path d="M42,52c0.4,0.1,0.9,0.1,1.3,0.1c0.5,0,0.9-0.1,1.4-0.1c4.3,4.8,8.6,9.5,13,14.3c0-4.8,0-12.9-0.2-14.3
			c0.4,0.1,0.9,0.1,1.4,0.1c0.4,0,0.9-0.1,1.3-0.1c-0.5,8.7-0.5,12.7-0.5,20.7c-0.4-0.1-0.8-0.2-1.2-0.2s-0.8,0.1-1.2,0.2
			c-4.1-4.9-8.5-9.7-13.1-14.6c-0.1,2.3-0.1,4.7-0.1,7c0,4.8,0.1,6.5,0.2,7.6c-0.5-0.1-1-0.2-1.4-0.2c-0.4,0-0.9,0.1-1.4,0.2
			c0.1-0.9,0.6-8.6,0.6-14.7C42.1,55.2,42,53.4,42,52z"/>
		<path d="M68.4,57.8c4.6,0,7.3,2.9,7.3,7.3c0,4.9-3,8-7.3,8c-3.6,0-7.4-2-7.4-7.3C61,60.4,64.6,57.8,68.4,57.8z M68.4,59.1
			c-1.8,0-3,2.2-3,6.7c0,3.4,0.7,5.9,2.9,5.9c1.9,0,2.9-2.4,2.9-7C71.3,61.2,70.4,59.1,68.4,59.1z"/>
		<path d="M78.1,68.1c1.3,0,2.5,1.1,2.5,2.5s-1.1,2.5-2.5,2.5c-1.4,0-2.5-1.1-2.5-2.5S76.7,68.1,78.1,68.1z"/>
		<path d="M89.1,52.4c-0.2,2.4-0.3,5.9-0.3,9v1.8c0,3.2,0,5.4,0.2,9.5c-0.8-0.1-1.6-0.2-2.3-0.2s-1.6,0.1-2.4,0.2
			c0.1-1.5,0.3-5,0.3-8.3v-8.5c-0.6,0.2-2.4,1.2-3.5,1.7C80.7,57,80,56.3,79.6,56c3.1-1.1,5.7-2.3,8.9-3.9L89.1,52.4z"/>
	</g>
	<g>
		<g>
			<polygon class="st2" points="110.5,104.2 131.3,112.9 118.5,118.1 122.9,128.8 103.6,120.6 			"/>
			<polygon class="st3" points="116.1,106.5 116.1,125.9 103.6,120.6 111.1,106.5 			"/>
		</g>
		<polygon class="st3" points="103.6,120.6 101.1,109.9 109.7,109.9 		"/>
	</g>
	<g>
		<g>
			<polygon class="st2" points="24.3,104.2 3.5,112.9 16.3,118.1 11.9,128.8 31.2,120.6 			"/>
			<polygon class="st3" points="18.7,106.5 18.7,125.9 31.2,120.6 23.7,106.5 			"/>
		</g>
		<polygon class="st3" points="31.2,120.6 33.7,109.9 25.1,109.9 		"/>
	</g>
	<path class="st4" d="M110.5,118.5l7-13.9c-16.3-13.8-25.4-20.7-49.1-20.7s-41.9,10.4-51.1,20.7c1.4,4.6,5.7,14.5,5.7,14.5
		C37.7,107,45.3,99.5,67.3,99.5S98.6,109.3,110.5,118.5z"/>
	<g>
		<g>
			<path class="st5" d="M23,105.8c0.4-0.3,0.6-0.5,0.9-0.9c2.2,1.2,3.3,1.8,5.3,3.1c-0.3,0.2-0.4,0.3-0.7,0.6
				c-0.6-0.4-0.9-0.5-1.4-0.9c-0.7,0.6-1,0.9-1.7,1.6c0.3,0.6,0.4,0.9,0.7,1.5c-0.3,0.3-0.4,0.4-0.6,0.6
				C24.5,109.2,23.9,108.1,23,105.8z M25.2,108.8c0.6-0.5,0.9-0.8,1.4-1.3c-1-0.6-1.6-0.9-2.6-1.5c0,0,0,0,0,0
				C24.4,107.1,24.7,107.6,25.2,108.8z"/>
			<path class="st5" d="M32.1,105.4c0.8,1.1,0.5,1.9-0.3,2.5c-0.2,0.2-1.2,1-2,0.2c0.2-0.2,0.4-0.3,0.6-0.5c0.3,0.3,0.7,0.2,1-0.1
				c0.8-0.6,0.4-1.1,0.2-1.4c-0.1-0.2-0.2-0.3-0.3-0.5c0,0,0,0,0,0c0.1,0.4-0.2,0.9-0.6,1.2c-1.2,0.9-2.3-0.2-2.7-0.7
				c-0.8-0.9-1.2-2.1-0.1-2.9c0.5-0.4,1.1-0.4,1.4-0.2c0,0,0,0,0,0c-0.1-0.2-0.2-0.3-0.3-0.4c0.3-0.2,0.4-0.3,0.7-0.5
				C30.7,103.4,31.2,104.1,32.1,105.4z M28.7,105.6c0.5,0.6,1.1,1.2,1.8,0.7c0.7-0.5,0.4-1.2-0.1-1.9c-0.5-0.7-1.2-1.3-1.9-0.7
				C27.8,104.1,28.1,104.8,28.7,105.6z"/>
			<path class="st5" d="M32.5,102.9c0.4,0.6,1,1.4,1.8,0.8c0.6-0.4,0.4-1.1,0.2-1.3c0.3-0.2,0.4-0.3,0.7-0.4
				c0.3,0.4,0.6,1.5-0.6,2.3c-1,0.7-1.9,0.4-2.8-0.8c-0.6-0.9-1.2-2.1,0.2-3.1c1.4-0.9,2.2,0,2.7,0.8c0.1,0.1,0.1,0.1,0.1,0.2
				C33.9,101.9,33.4,102.3,32.5,102.9z M33.8,101.4c-0.1-0.1-0.1-0.1-0.1-0.2c-0.3-0.4-0.8-0.8-1.4-0.4c-0.7,0.5-0.3,1.3-0.2,1.5
				c0,0.1,0.1,0.1,0.1,0.1C32.8,102,33.2,101.8,33.8,101.4z"/>
			<path class="st5" d="M34.4,98.9c0.3-0.2,0.4-0.3,0.7-0.4c0.1,0.2,0.2,0.3,0.3,0.4c0,0,0,0,0,0c0-0.5,0.4-0.9,0.8-1.2
				c1.2-0.7,1.7,0.1,1.9,0.5c0.6,1.1,0.9,1.7,1.5,2.8c-0.3,0.1-0.4,0.2-0.7,0.4c-0.6-1.1-0.9-1.6-1.5-2.7c-0.2-0.3-0.5-0.8-1.1-0.4
				c-0.4,0.2-0.8,0.8-0.5,1.3c0.6,1.1,0.9,1.6,1.6,2.6c-0.3,0.2-0.4,0.2-0.7,0.4C35.8,101.2,35.3,100.4,34.4,98.9z"/>
			<path class="st5" d="M38.1,95.4c0.3-0.2,0.5-0.2,0.8-0.4c0.2,0.5,0.3,0.7,0.6,1.2c0.3-0.2,0.5-0.2,0.8-0.4
				c0.1,0.2,0.1,0.3,0.2,0.5c-0.3,0.2-0.5,0.2-0.8,0.4c0.5,1,0.8,1.5,1.3,2.5c0.2,0.3,0.3,0.4,0.7,0.2c0.2-0.1,0.2-0.1,0.3-0.2
				c0.1,0.2,0.1,0.3,0.2,0.5c-0.1,0.1-0.3,0.2-0.6,0.3c-0.7,0.4-1,0.2-1.3-0.3c-0.6-1.1-0.8-1.6-1.4-2.7c-0.3,0.1-0.4,0.2-0.7,0.4
				c-0.1-0.2-0.2-0.3-0.3-0.5c0.3-0.1,0.4-0.2,0.7-0.4C38.5,96,38.4,95.8,38.1,95.4z"/>
			<path class="st5" d="M42.5,93.1c0.3-0.1,0.5-0.2,0.8-0.3c0.1,0.3,0.2,0.4,0.3,0.7c-0.3,0.1-0.5,0.2-0.8,0.3
				C42.7,93.6,42.6,93.4,42.5,93.1z M43.1,94.5c0.3-0.1,0.5-0.2,0.8-0.3c0.7,1.6,1,2.5,1.7,4.1c-0.3,0.1-0.4,0.2-0.7,0.3
				C44.1,96.9,43.8,96.1,43.1,94.5z"/>
			<path class="st5" d="M44.9,93.7c0.3-0.1,0.4-0.2,0.7-0.3c0.1,0.2,0.1,0.3,0.2,0.5c0,0,0,0,0,0c0.1-0.5,0.5-0.9,1-1
				c1.3-0.5,1.6,0.4,1.8,0.9c0.4,1.2,0.6,1.8,1,3c-0.3,0.1-0.4,0.1-0.7,0.2c-0.4-1.2-0.6-1.7-1-2.9c-0.1-0.3-0.3-0.8-1-0.6
				c-0.4,0.1-0.9,0.6-0.7,1.2c0.4,1.1,0.6,1.7,1.1,2.9c-0.3,0.1-0.4,0.2-0.7,0.3C45.9,96.2,45.6,95.4,44.9,93.7z"/>
			<path class="st5" d="M54.6,91c-0.1-0.6-0.5-1-1.3-0.8c-0.7,0.2-1.1,0.6-0.9,1.2c0.4,1.6,3.4-0.1,3.8,2c0.3,1.3-0.8,1.9-1.7,2.1
				c-1.5,0.3-2.1-0.2-2.4-1.4c0.3-0.1,0.5-0.1,0.8-0.2c0.2,0.6,0.4,1.3,1.5,1c0.6-0.1,1-0.7,0.9-1.3c-0.3-1.6-3.3,0.1-3.8-2
				c-0.1-0.5-0.1-1.7,1.6-2.1c1.3-0.3,2.1,0.1,2.3,1.2C55.1,90.9,54.9,90.9,54.6,91z"/>
			<path class="st5" d="M56.5,91.9c-0.2-1,0.2-1.5,1.5-1.7c1.6-0.2,1.7,0.6,1.8,1c0.1,1,0.2,1.5,0.3,2.4c0,0.2,0,0.4,0.3,0.3
				c0.1,0,0.1,0,0.2-0.1c0,0.2,0,0.3,0.1,0.5c-0.1,0-0.2,0.1-0.4,0.1c-0.3,0-0.7,0.1-0.8-0.5c0,0,0,0,0,0c-0.2,0.4-0.6,0.7-1.1,0.8
				c-0.9,0.1-1.4-0.3-1.6-1c-0.1-0.6,0.1-1.1,0.7-1.4c0.4-0.2,0.6-0.3,1-0.4c0.6-0.2,0.5-0.4,0.5-0.7c-0.1-0.4-0.4-0.6-0.9-0.5
				c-0.9,0.1-0.8,0.8-0.7,1c0,0,0,0,0,0C57,91.8,56.9,91.8,56.5,91.9z M59.1,92.1c-0.3,0.3-0.9,0.5-1.3,0.7
				c-0.2,0.2-0.3,0.4-0.3,0.8c0.1,0.4,0.3,0.7,0.8,0.6c0.5-0.1,0.9-0.5,0.9-1C59.2,92.8,59.2,92.6,59.1,92.1z"/>
			<path class="st5" d="M60.8,89.9c0.3,0,0.5-0.1,0.8-0.1c0,0.2,0,0.3,0.1,0.5c0,0,0,0,0,0c0.2-0.4,0.7-0.7,1.2-0.7
				c1.4-0.1,1.4,0.8,1.5,1.3c0.1,1.3,0.1,1.9,0.2,3.1c-0.3,0-0.5,0-0.8,0c-0.1-1.2-0.1-1.8-0.2-3c0-0.3-0.1-0.9-0.8-0.8
				c-0.4,0-1,0.3-0.9,1c0.1,1.2,0.2,1.8,0.3,3c-0.3,0-0.5,0-0.8,0.1C61.1,92.5,61,91.7,60.8,89.9z"/>
			<path class="st5" d="M67.7,88c0.6,0,0.9,0,1.5,0c0.5,1.9,0.8,2.8,1.2,4.7c0,0,0,0,0,0c0.6-1.8,0.9-2.8,1.6-4.6
				c0.6,0,0.9,0.1,1.5,0.1c-0.2,2.3-0.3,3.5-0.5,5.9c-0.3,0-0.5,0-0.8-0.1c0.2-2.1,0.2-3.1,0.4-5.1c0,0,0,0,0,0c-0.8,2-1.1,3-1.8,5
				c-0.3,0-0.5,0-0.8,0c-0.5-2.1-0.8-3.1-1.4-5.2c0,0,0,0,0,0c0,2.1,0,3.1-0.1,5.1c-0.3,0-0.5,0-0.8,0C67.8,91.6,67.7,90.4,67.7,88z
				"/>
			<path class="st5" d="M74.4,91.2c0.1-1,0.7-1.4,1.9-1.2c1.6,0.2,1.5,1,1.4,1.5c-0.2,1-0.2,1.5-0.4,2.4c0,0.2-0.1,0.4,0.2,0.4
				c0.1,0,0.1,0,0.2,0c0,0.2,0,0.3-0.1,0.5c-0.1,0-0.3,0-0.5,0c-0.3,0-0.7-0.1-0.6-0.7c0,0,0,0,0,0c-0.3,0.4-0.8,0.5-1.3,0.5
				c-0.9-0.1-1.3-0.6-1.2-1.4c0.1-0.6,0.4-1,1.1-1.1c0.4-0.1,0.7-0.1,1.1-0.1c0.6-0.1,0.6-0.2,0.7-0.6c0.1-0.4-0.2-0.7-0.7-0.8
				c-0.9-0.1-1,0.6-1,0.8c0,0,0,0,0,0C74.9,91.2,74.7,91.2,74.4,91.2z M76.8,92.1c-0.3,0.2-1,0.2-1.4,0.3c-0.3,0.1-0.4,0.3-0.5,0.7
				c-0.1,0.4,0.1,0.8,0.6,0.8c0.5,0.1,1-0.3,1.1-0.7C76.7,92.8,76.7,92.6,76.8,92.1z"/>
			<path class="st5" d="M79.5,89.2c0.3,0.1,0.5,0.1,0.8,0.2c-0.1,0.5-0.1,0.8-0.2,1.3c0.4,0.1,0.5,0.1,0.9,0.2
				c0,0.2-0.1,0.3-0.1,0.5c-0.4-0.1-0.5-0.1-0.9-0.2c-0.2,1.1-0.3,1.7-0.5,2.8c-0.1,0.3,0,0.5,0.4,0.6c0.2,0,0.3,0,0.3,0
				c0,0.2-0.1,0.3-0.1,0.6c-0.1,0-0.3,0-0.6-0.1c-0.8-0.2-0.9-0.5-0.8-1c0.2-1.2,0.3-1.8,0.5-3c-0.3-0.1-0.5-0.1-0.8-0.1
				c0-0.2,0.1-0.3,0.1-0.5c0.3,0.1,0.5,0.1,0.8,0.1C79.4,90,79.5,89.8,79.5,89.2z"/>
			<path class="st5" d="M81.8,93.3c-0.2,0.7-0.4,1.6,0.6,1.9c0.7,0.2,1-0.5,1.1-0.8c0.3,0.1,0.5,0.1,0.8,0.2c-0.1,0.5-0.7,1.4-2,1.1
				c-1.2-0.3-1.5-1.1-1.2-2.6c0.2-1.1,0.8-2.3,2.3-1.9c1.6,0.4,1.4,1.6,1.2,2.5c0,0.1,0,0.2-0.1,0.3C83.3,93.7,82.8,93.6,81.8,93.3z
				 M83.7,93.3c0-0.1,0-0.1,0.1-0.2c0.1-0.5,0.1-1.1-0.6-1.3c-0.8-0.2-1.1,0.6-1.2,0.9c0,0.1,0,0.1,0,0.2C82.6,93,83,93.1,83.7,93.3
				z"/>
			<path class="st5" d="M87.5,92.4c1.5,0.5,1.5,1.6,1.1,2.8c-0.4,1.2-1.1,2.1-2.5,1.6c-1.4-0.4-1.4-1.6-1.1-2.8
				C85.3,92.9,86,91.9,87.5,92.4z M87.7,94.9c0.3-0.9,0.4-1.7-0.4-2c-0.8-0.3-1.2,0.5-1.5,1.4c-0.3,0.9-0.4,1.7,0.4,2
				C87,96.6,87.4,95.8,87.7,94.9z"/>
			<path class="st5" d="M95.3,98.2c-0.6,1-1.4,1.7-2.8,1.1c-1.7-0.8-1.4-2.3-0.8-3.7c0.6-1.4,1.5-2.7,3.3-1.9
				c1.4,0.6,1.6,1.5,1.2,2.6c-0.3-0.2-0.5-0.2-0.8-0.4c0.3-0.6,0.3-1.2-0.6-1.6c-1.1-0.5-1.7,0.5-2.3,1.7c-0.5,1.3-0.8,2.3,0.2,2.8
				c0.9,0.4,1.4-0.3,1.7-0.9C94.8,98,95,98.1,95.3,98.2z"/>
			<path class="st5" d="M98.6,97.1c1.4,0.7,1.2,1.9,0.5,3c-0.6,1.1-1.5,1.8-2.8,1.1c-1.3-0.7-1.1-1.8-0.6-2.9
				C96.4,97.2,97.2,96.4,98.6,97.1z M98.4,99.7c0.5-0.8,0.7-1.6-0.1-2.1c-0.8-0.4-1.3,0.2-1.7,1.1c-0.4,0.8-0.7,1.7,0,2
				C97.4,101.1,97.9,100.5,98.4,99.7z"/>
			<path class="st5" d="M101.5,104.2c-0.3-0.2-0.4-0.3-0.6-0.4c0.1-0.2,0.2-0.3,0.3-0.4c0,0,0,0,0,0c-0.4,0.2-1,0.1-1.4-0.1
				c-1.1-0.7-0.7-1.5-0.4-1.9c0.6-1.1,1-1.6,1.6-2.7c0.3,0.2,0.4,0.3,0.7,0.4c-0.6,1-1,1.6-1.6,2.6c-0.2,0.3-0.4,0.8,0.2,1.2
				c0.4,0.2,1,0.3,1.3-0.2c0.7-1,1-1.5,1.7-2.6c0.3,0.2,0.4,0.3,0.7,0.5C103,102,102.5,102.8,101.5,104.2z"/>
			<path class="st5" d="M105,101.2c0.3,0.2,0.4,0.3,0.7,0.5c-0.1,0.2-0.2,0.3-0.3,0.4c0,0,0,0,0,0c0.4-0.2,1,0,1.5,0.3
				c1.2,0.9,0.6,1.6,0.3,2c-0.8,1-1.2,1.5-1.9,2.5c-0.3-0.2-0.4-0.3-0.6-0.5c0.7-1,1.1-1.5,1.9-2.4c0.2-0.3,0.5-0.7-0.1-1.2
				c-0.4-0.3-1-0.4-1.4,0.1c-0.7,1-1.1,1.5-1.8,2.5c-0.3-0.2-0.4-0.3-0.7-0.5C103.4,103.4,103.9,102.7,105,101.2z"/>
			<path class="st5" d="M109.8,103.3c0.3,0.2,0.4,0.3,0.7,0.6c-0.3,0.4-0.5,0.6-0.8,1c0.3,0.3,0.4,0.4,0.7,0.6
				c-0.1,0.2-0.2,0.2-0.4,0.4c-0.3-0.3-0.4-0.4-0.7-0.6c-0.7,0.9-1.1,1.3-1.8,2.2c-0.2,0.3-0.2,0.4,0.1,0.7c0.1,0.1,0.2,0.2,0.3,0.2
				c-0.2,0.2-0.2,0.3-0.4,0.4c-0.1-0.1-0.3-0.2-0.5-0.4c-0.6-0.6-0.6-0.9-0.2-1.4c0.8-0.9,1.2-1.4,1.9-2.4c-0.2-0.2-0.4-0.3-0.6-0.5
				c0.1-0.2,0.2-0.3,0.3-0.4c0.3,0.2,0.4,0.3,0.6,0.5C109.3,103.9,109.5,103.7,109.8,103.3z"/>
			<path class="st5" d="M110.5,105.6c0.3,0.3,0.4,0.4,0.7,0.6c-0.6,1.4-0.9,2-1.6,3.3c0,0,0,0,0,0c1.2-0.8,1.9-1.2,3.1-1.9
				c0.3,0.3,0.4,0.4,0.7,0.7c-1.8,0.9-2.7,1.3-4.4,2.3c-0.6,0.3-1.1,0.6-1.8-0.1c-0.2-0.2-0.3-0.3-0.4-0.4c0.1-0.2,0.2-0.2,0.4-0.4
				c0.1,0.1,0.2,0.2,0.3,0.3c0.3,0.3,0.5,0.2,0.8,0.1c0.2-0.1,0.2-0.1,0.4-0.2C109.4,108.2,109.8,107.4,110.5,105.6z"/>
		</g>
	</g>
</g>
</svg>
