<?xml version="1.0" encoding="utf-8"?>
<!-- Generator: Adobe Illustrator 21.1.0, SVG Export Plug-In . SVG Version: 6.00 Build 0)  -->
<svg version="1.1" id="Layer_1" xmlns="http://www.w3.org/2000/svg" xmlns:xlink="http://www.w3.org/1999/xlink" x="0px" y="0px"
	 viewBox="0 0 134.8 138" style="enable-background:new 0 0 134.8 138;" xml:space="preserve">
<style type="text/css">
	.st0{fill:url(#SVGID_1_);}
	.st1{fill:none;stroke:#907E3C;stroke-miterlimit:10;}
	.st2{fill:#004D17;}
	.st3{fill:#003402;}
	.st4{fill:#005D22;}
	.st5{fill:#FFFFFF;}
	.st6{fill:url(#SVGID_2_);}
	.st7{fill:url(#SVGID_3_);}
	.st8{fill:url(#SVGID_4_);}
	.st9{fill:url(#SVGID_5_);}
	.st10{fill:url(#SVGID_6_);}
	.st11{fill:url(#SVGID_7_);}
	.st12{fill:url(#SVGID_8_);}
</style>
<g>
	<g>
		<g>
			<path d="M38.6,61.7c0.3,0,0.5,0.1,0.8,0.1c2.3,0,3.4-1.5,3.4-4.2c0-2.6-1.1-3.8-2.5-3.8c-1.8,0-2.6,1.7-2.8,3.7l-0.4,0.1
				c-0.6-0.7-1.3-1.4-2-2c1-1.8,2.6-2.9,5.9-2.9c4.6,0,6.3,2.1,6.3,4.7c0,2.4-1.6,3.8-4.2,4.6v0.3c3.2,0.5,4.9,1.5,4.9,5
				c0,3.8-3.8,6-7.5,6c-3.2,0-5-1.1-5.9-2.3c0.7-0.9,1.3-1.7,1.9-2.6l0.4,0.1c0.3,1.8,1.3,3.5,3.2,3.5c1.9,0,3.4-1.8,3.4-4.3
				c0-2.6-1.3-4.4-3.4-4.4c-0.5,0-0.9,0.1-1.3,0.1V61.7z"/>
			<path d="M51.4,68.4c1.3,0,2.5,1.1,2.5,2.5s-1.1,2.5-2.5,2.5S49,72.2,49,70.9S50.1,68.4,51.4,68.4z"/>
			<path d="M65.9,54.1c-0.5-0.2-1-0.3-1.8-0.3c-2.4,0-5,2.7-5.2,8.6l0.1,0.1c0.8-1,2.2-1.7,4.1-1.7c2.9,0,5.5,1.9,5.5,5.7
				c0,4-3.1,6.7-6.8,6.7c-4.4,0-7.3-2.8-7.3-8.4c0-7.7,3.8-12.2,9.2-12.2c0.7,0,1.2,0.1,1.7,0.2c0.1,0.4,0.3,0.8,0.5,1.2L65.9,54.1z
				 M61.6,62.5c-1.3,0-2.5,1.2-2.5,4.4c0,3.8,1,5.1,2.5,5.1c1.6,0,2.5-1.8,2.5-4.8C64.1,63.7,63,62.5,61.6,62.5z"/>
			<path d="M72.8,61.7c-1.9-0.3-3.4-2-3.4-4.2c0-3.1,2.7-4.9,6.4-4.9c4.3,0,6.4,2.1,6.4,4.6c0,2.5-1.6,4-3.4,4.4v0.2
				c1.9,0.3,4.1,2,4.1,5c0,4.1-3,6.3-7.1,6.3c-4,0-7-2-7-5.9c0-3.2,2-5,4.1-5.5V61.7z M75.7,62.6c-1.5,0-2.5,1.3-2.5,4.7
				c0,3.2,1,4.7,2.6,4.7c1.3,0,2.6-1.5,2.6-4.8C78.4,64,77.2,62.6,75.7,62.6z M75.8,53.8c-1.8,0-2.5,1.5-2.5,4
				c0,2.3,1.1,3.5,2.3,3.5c1.4,0,2.4-1.4,2.4-3.8C78.1,55.3,77.4,53.8,75.8,53.8z"/>
			<path d="M89.5,52.6c2.9,0,5.1,1.9,5.1,4.8c0,3-2.2,5.2-5.1,5.2c-3,0-5.1-1.9-5.1-4.9C84.4,54.8,86.7,52.6,89.5,52.6z M89.6,53.6
				c-1.6,0-2.2,1.5-2.2,4.4c0,2.3,0.5,3.7,2.1,3.7c1,0,2.1-0.8,2.1-4.2C91.6,55,91,53.6,89.6,53.6z M100.8,52c0.3,0,0.5,0.1,0.8,0.1
				c0.3,0,0.5,0,0.8-0.1L92,73.9c-0.3,0-0.5-0.1-0.8-0.1c-0.3,0-0.5,0-0.8,0.1L100.8,52z M103.3,63.3c2.9,0,5.1,1.9,5.1,4.8
				c0,3-2.2,5.2-5.1,5.2c-3,0-5.1-1.9-5.1-4.9C98.2,65.4,100.6,63.3,103.3,63.3z M103.4,64.2c-1.6,0-2.2,1.5-2.2,4.4
				c0,2.3,0.5,3.7,2.1,3.7c1,0,2.1-0.8,2.1-4.2C105.4,65.6,104.8,64.2,103.4,64.2z"/>
		</g>
	</g>
	<g>
		<linearGradient id="SVGID_1_" gradientUnits="userSpaceOnUse" x1="11.4253" y1="65.4386" x2="123.3188" y2="65.4386">
			<stop  offset="0" style="stop-color:#D9C066"/>
			<stop  offset="0.1156" style="stop-color:#B29A4B"/>
			<stop  offset="0.2236" style="stop-color:#D9C066"/>
			<stop  offset="0.5101" style="stop-color:#FFF797"/>
			<stop  offset="0.8116" style="stop-color:#D9C066"/>
			<stop  offset="0.8894" style="stop-color:#B29A4B"/>
			<stop  offset="1" style="stop-color:#D9C066"/>
		</linearGradient>
		<path class="st0" d="M67.4,18.5c25.9,0,46.9,21.1,46.9,46.9s-21.1,46.9-46.9,46.9S20.4,91.3,20.4,65.4S41.5,18.5,67.4,18.5
			 M67.4,9.5c-30.9,0-55.9,25-55.9,55.9s25,55.9,55.9,55.9s55.9-25,55.9-55.9S98.3,9.5,67.4,9.5L67.4,9.5z"/>
	</g>
	<circle class="st1" cx="67.3" cy="65.4" r="46.5"/>
	<g>
		<g>
			<polygon class="st2" points="110.5,103.9 131.3,112.7 118.5,117.8 122.9,128.5 103.6,120.4 			"/>
			<polygon class="st3" points="116.1,106.3 116.1,125.6 103.6,120.4 111.1,106.3 			"/>
		</g>
		<polygon class="st3" points="103.6,120.4 101.1,109.7 109.7,109.7 		"/>
	</g>
	<path class="st4" d="M110,118l7-13.9c-16.3-13.8-25.4-20.7-49.1-20.7S26,93.8,16.8,104.2c1.4,4.6,5.7,14.5,5.7,14.5
		C37.2,106.5,44.8,99,66.9,99S98.1,108.8,110,118z"/>
	<g>
		<g>
			<polygon class="st2" points="24.3,103.9 3.5,112.7 16.3,117.8 11.9,128.5 31.2,120.4 			"/>
			<polygon class="st3" points="18.7,106.3 18.7,125.6 31.2,120.4 23.7,106.3 			"/>
		</g>
		<polygon class="st3" points="31.2,120.4 33.7,109.7 25.1,109.7 		"/>
	</g>
	<g>
		<g>
			<g>
				<path class="st5" d="M21,105.4c0.3-0.3,0.5-0.5,0.8-0.8c1.8,1.9,2.7,2.8,4.5,4.6c1-1,1.5-1.4,2.6-2.3c0.2,0.2,0.3,0.4,0.5,0.6
					c-1.3,1.2-2,1.8-3.3,3C24.1,108.5,23.1,107.5,21,105.4z"/>
				<path class="st5" d="M28.1,101.4c1.6-1.2,2.7-0.4,3.6,0.8c0.9,1.2,1.3,2.6-0.1,3.7c-1.4,1.1-2.6,0.4-3.6-0.8
					C27,104,26.5,102.6,28.1,101.4z M30.8,102.9c-0.7-0.9-1.5-1.6-2.4-0.9c-0.8,0.7-0.4,1.6,0.4,2.5c0.7,0.9,1.5,1.6,2.3,0.9
					C32,104.8,31.6,103.8,30.8,102.9z"/>
				<path class="st5" d="M30.6,99.7c0.4-0.3,0.5-0.4,0.9-0.6c1.4,1.2,2,1.8,3.3,3.1c0,0,0,0,0,0c-0.6-1.7-0.9-2.6-1.5-4.3
					c0.4-0.3,0.6-0.4,1-0.6c1.3,1.3,1.9,1.9,3.2,3.3c0,0,0,0,0,0c-0.6-1.7-0.8-2.6-1.3-4.4c0.4-0.2,0.6-0.3,1-0.5
					c0.5,2.2,0.7,3.3,1.3,5.5c-0.4,0.2-0.5,0.3-0.9,0.5c-1.3-1.3-1.9-2-3.3-3.2c0,0,0,0,0,0c0.6,1.7,0.9,2.6,1.5,4.3
					c-0.4,0.2-0.6,0.4-0.9,0.6C33.3,101.8,32.4,101.1,30.6,99.7z"/>
				<path class="st5" d="M46.6,94.6c0.4,1.3,0.3,2.7-1.4,3.3c-2.1,0.9-3.2-0.7-3.9-2.4c-0.8-1.7-1.2-3.6,1.1-4.6
					c1.7-0.7,2.7-0.2,3.3,1.2c-0.4,0.2-0.6,0.2-1,0.4c-0.3-0.8-0.9-1.3-1.9-0.9c-1.4,0.6-1,1.9-0.4,3.5c0.7,1.5,1.4,2.7,2.7,2.2
					c1.1-0.5,0.9-1.5,0.6-2.3C46,94.8,46.2,94.7,46.6,94.6z"/>
				<path class="st5" d="M48.4,90.7c1.8-0.6,2.6,0.6,3,2.1c0.4,1.5,0.3,2.8-1.3,3.4c-1.6,0.5-2.5-0.6-3-2
					C46.6,92.7,46.6,91.3,48.4,90.7z M50.5,93.1c-0.3-1.1-0.8-2.1-1.8-1.7c-1,0.3-0.9,1.3-0.5,2.5c0.4,1.1,0.9,2,1.8,1.7
					C50.9,95.3,50.8,94.2,50.5,93.1z"/>
				<path class="st5" d="M51.8,89.9c0.4-0.1,0.6-0.1,0.9-0.2c0.1,0.2,0.1,0.4,0.1,0.6c0,0,0,0,0,0c0.1-0.5,0.7-1,1.4-1.1
					c0.7-0.2,1.2,0,1.5,0.6c0.2-0.5,0.7-1,1.4-1.1c1.7-0.3,1.8,0.8,1.9,1.5c0.2,1.5,0.3,2.3,0.5,3.8c-0.4,0.1-0.6,0.1-0.9,0.1
					c-0.2-1.5-0.3-2.2-0.6-3.7c-0.1-0.4-0.2-1.1-1-0.9c-0.5,0.1-1.1,0.4-1,1.3c0.3,1.5,0.4,2.2,0.7,3.7c-0.4,0.1-0.5,0.1-0.9,0.2
					c-0.3-1.5-0.4-2.2-0.7-3.7c-0.1-0.4-0.3-1.1-1.1-0.9c-0.5,0.1-1.1,0.5-0.9,1.3c0.3,1.5,0.5,2.2,0.9,3.7
					c-0.4,0.1-0.5,0.1-0.9,0.2C52.6,93.1,52.3,92,51.8,89.9z"/>
				<path class="st5" d="M60.4,88.4c0.4,0,0.6-0.1,1-0.1c0,0.3,0,0.4,0.1,0.6c0,0,0,0,0,0c0.2-0.5,0.9-0.9,1.5-0.9
					c0.7-0.1,1.2,0.2,1.4,0.8c0.3-0.5,0.8-0.9,1.5-0.9c1.7,0,1.7,1.1,1.7,1.7c0,1.5,0,2.3,0,3.9c-0.4,0-0.6,0-0.9,0
					c0-1.5,0-2.3-0.1-3.8c0-0.4-0.1-1.1-0.9-1.1c-0.5,0-1.2,0.3-1.1,1.1c0.1,1.5,0.1,2.2,0.2,3.7c-0.4,0-0.6,0-0.9,0.1
					c-0.1-1.5-0.1-2.2-0.2-3.7c0-0.4-0.1-1.1-0.9-1c-0.5,0-1.2,0.3-1.1,1.2c0.1,1.5,0.2,2.2,0.4,3.7c-0.4,0-0.6,0.1-0.9,0.1
					C60.8,91.6,60.6,90.5,60.4,88.4z"/>
				<path class="st5" d="M69.1,86.2c0.4,0,0.6,0,1,0c0,0.4,0,0.6,0,1c-0.4,0-0.6,0-1,0C69.1,86.8,69.1,86.6,69.1,86.2z M69.1,88
					c0.4,0,0.6,0,1,0c-0.1,2.2-0.1,3.3-0.2,5.4c-0.4,0-0.6,0-0.9,0C69,91.2,69,90.1,69.1,88z"/>
				<path class="st5" d="M74.1,89.9c0.1-0.7-0.1-1.1-0.8-1.1c-0.3,0-1,0-1.1,0.7c0,0.6,0.7,0.8,1.5,1.1c0.7,0.3,1.5,0.6,1.3,1.7
					c-0.1,1.1-1,1.6-2.1,1.5c-2-0.2-1.9-1.5-1.9-2.1c0.4,0,0.6,0,1,0.1c0,0.7,0.1,1.3,1,1.3c0.3,0,1,0,1.1-0.8
					c0.1-0.7-0.7-1-1.4-1.2c-0.7-0.3-1.5-0.5-1.4-1.6c0.1-1,1-1.4,2.1-1.3c1.9,0.2,1.8,1.3,1.8,1.9C74.7,89.9,74.5,89.9,74.1,89.9z"
					/>
				<path class="st5" d="M78.8,90.6c0.1-0.7,0-1.1-0.7-1.2c-0.3-0.1-1-0.1-1.2,0.7c-0.1,0.6,0.7,0.9,1.4,1.2
					c0.7,0.3,1.4,0.7,1.2,1.8c-0.2,1.1-1.1,1.5-2.2,1.3c-2-0.3-1.8-1.7-1.8-2.2c0.4,0.1,0.6,0.1,0.9,0.1c-0.1,0.7,0,1.3,0.9,1.4
					c0.3,0,1,0,1.1-0.7c0.1-0.7-0.6-1-1.3-1.3c-0.7-0.3-1.5-0.6-1.3-1.7c0.1-1,1.1-1.4,2.2-1.2c1.9,0.3,1.7,1.4,1.6,2.1
					C79.4,90.7,79.2,90.6,78.8,90.6z"/>
				<path class="st5" d="M81.7,87.7c0.4,0.1,0.6,0.1,1,0.2c-0.1,0.4-0.1,0.6-0.2,0.9c-0.4-0.1-0.6-0.1-1-0.2
					C81.5,88.2,81.6,88,81.7,87.7z M81.3,89.4c0.4,0.1,0.6,0.1,1,0.2c-0.5,2.1-0.7,3.2-1.2,5.3c-0.4-0.1-0.5-0.1-0.9-0.2
					C80.6,92.6,80.8,91.6,81.3,89.4z"/>
				<path class="st5" d="M85.6,90.4c1.8,0.5,1.8,2,1.3,3.4c-0.5,1.5-1.3,2.6-3,2.1c-1.6-0.5-1.7-1.8-1.4-3.3
					C83,91.1,83.8,89.9,85.6,90.4z M86,93.5c0.4-1.1,0.5-2.2-0.6-2.5c-1-0.3-1.5,0.6-1.8,1.8c-0.3,1.1-0.4,2.2,0.5,2.4
					C85.1,95.5,85.6,94.6,86,93.5z"/>
				<path class="st5" d="M88.8,91.6c0.4,0.1,0.6,0.2,0.9,0.3c-0.1,0.2-0.1,0.4-0.2,0.6c0,0,0,0,0,0c0.4-0.4,1.2-0.4,1.8-0.2
					c1.6,0.6,1.2,1.7,0.9,2.2c-0.6,1.4-0.9,2.1-1.5,3.5c-0.3-0.1-0.5-0.2-0.9-0.4c0.6-1.4,0.9-2.1,1.4-3.5c0.2-0.4,0.4-1-0.5-1.4
					c-0.5-0.2-1.3-0.2-1.6,0.6c-0.5,1.4-0.8,2.1-1.3,3.5c-0.4-0.1-0.5-0.2-0.9-0.3C87.7,94.6,88.1,93.6,88.8,91.6z"/>
				<path class="st5" d="M97.6,93.4c1,0.5,1.6,0.8,2.6,1.4c1.2,0.7,1.7,1.8,1.1,2.7c-0.4,0.7-1.1,1.2-2.1,0.9c0,0,0,0,0,0
					c0.6,0.4,0.7,1.1,0.4,1.7c-0.2,0.4-0.4,0.7-0.6,1.1c-0.4,0.7-0.4,1-0.2,1.2c-0.4-0.3-0.6-0.4-1-0.6c-0.1-0.2,0.1-0.7,0.3-1
					c0.2-0.4,0.3-0.6,0.5-1c0.4-0.9-0.1-1.3-0.6-1.5c-0.5-0.3-0.7-0.4-1.2-0.7c-0.6,1.1-0.9,1.7-1.5,2.8c-0.4-0.2-0.5-0.3-0.9-0.5
					C95.6,97.2,96.3,95.9,97.6,93.4z M97,96.8c0.4,0.2,0.6,0.3,0.9,0.5c0.5,0.3,1.5,0.9,2.3-0.3c0.4-0.6,0.1-1.3-0.8-1.8
					c-0.5-0.3-0.7-0.4-1.2-0.6C97.7,95.4,97.5,95.9,97,96.8z"/>
				<path class="st5" d="M101.3,99.5c0.7-1,1.5-1.2,2.8-0.2c1.7,1.2,1.1,2,0.7,2.5c-0.7,1-1.1,1.5-1.8,2.4c-0.1,0.2-0.3,0.3,0,0.5
					c0.1,0.1,0.2,0.1,0.2,0.1c-0.1,0.2-0.2,0.3-0.4,0.5c-0.1,0-0.3-0.2-0.5-0.3c-0.3-0.2-0.7-0.5-0.3-1.1c0,0,0,0,0,0
					c-0.5,0.2-1.2,0.1-1.7-0.2c-0.9-0.6-1.1-1.4-0.5-2.3c0.4-0.6,1-0.9,1.8-0.6c0.5,0.2,0.8,0.3,1.3,0.5c0.7,0.3,0.8,0.1,1.1-0.2
					c0.3-0.4,0.2-0.9-0.4-1.3c-0.9-0.7-1.4,0.1-1.5,0.2c0,0,0,0,0,0C101.8,99.8,101.6,99.7,101.3,99.5z M103.4,101.9
					c-0.5,0.1-1.3-0.4-1.8-0.5c-0.4,0-0.6,0-0.9,0.4c-0.3,0.5-0.3,0.9,0.2,1.3c0.5,0.4,1.3,0.3,1.6-0.1
					C102.9,102.6,103.1,102.4,103.4,101.9z"/>
				<path class="st5" d="M108.2,100.5c0.3,0.3,0.5,0.4,0.9,0.7c-0.4,0.5-0.6,0.7-1,1.2c0.4,0.3,0.5,0.5,0.9,0.8
					c-0.2,0.2-0.3,0.3-0.4,0.5c-0.4-0.3-0.5-0.5-0.9-0.8c-0.9,1.1-1.3,1.6-2.2,2.7c-0.3,0.3-0.3,0.6,0.1,0.9
					c0.2,0.1,0.3,0.2,0.4,0.3c-0.2,0.2-0.3,0.3-0.5,0.5c-0.1-0.1-0.3-0.2-0.6-0.5c-0.8-0.6-0.8-1.1-0.3-1.6c0.9-1.2,1.4-1.8,2.3-2.9
					c-0.3-0.2-0.5-0.4-0.8-0.6c0.2-0.2,0.2-0.3,0.4-0.5c0.3,0.2,0.5,0.4,0.8,0.6C107.6,101.2,107.8,101,108.2,100.5z"/>
				<path class="st5" d="M108.3,106.3c-0.6,0.6-1.4,1.5-0.5,2.4c0.7,0.6,1.4,0.1,1.7-0.2c0.3,0.3,0.4,0.4,0.7,0.7
					c-0.4,0.4-1.6,1.1-2.9-0.1c-1.1-1.1-1-2.2,0.2-3.6c0.9-1,2.2-2,3.7-0.6c1.6,1.4,0.6,2.6-0.2,3.5c-0.1,0.1-0.1,0.1-0.2,0.2
					C109.8,107.7,109.3,107.2,108.3,106.3z M110.5,107.5c0.1-0.1,0.1-0.1,0.2-0.2c0.4-0.4,0.7-1.1,0.1-1.8c-0.8-0.8-1.7,0-1.9,0.2
					c-0.1,0.1-0.1,0.1-0.1,0.2C109.5,106.5,109.8,106.8,110.5,107.5z"/>
			</g>
		</g>
	</g>
</g>
</svg>
